<svg width="1050" height="300" viewBox="0 0 1050 300" xmlns="http://www.w3.org/2000/svg">
  <defs>
    <linearGradient id="bg" x1="0%" y1="0%" x2="100%" y2="100%">
      <stop offset="0%" style="stop-color:#0a0a14"/>
      <stop offset="50%" style="stop-color:#0d0d1f"/>
      <stop offset="100%" style="stop-color:#080813"/>
    </linearGradient>
    <filter id="glow-cyan" x="-40%" y="-40%" width="180%" height="180%">
      <feGaussianBlur stdDeviation="4" result="blur"/>
      <feMerge><feMergeNode in="blur"/><feMergeNode in="SourceGraphic"/></feMerge>
    </filter>
    <filter id="glow-yellow" x="-40%" y="-40%" width="180%" height="180%">
      <feGaussianBlur stdDeviation="5" result="blur"/>
      <feMerge><feMergeNode in="blur"/><feMergeNode in="SourceGraphic"/></feMerge>
    </filter>
    <filter id="glow-soft" x="-20%" y="-20%" width="140%" height="140%">
      <feGaussianBlur stdDeviation="2" result="blur"/>
      <feMerge><feMergeNode in="blur"/><feMergeNode in="SourceGraphic"/></feMerge>
    </filter>
    <filter id="text-glow" x="-10%" y="-30%" width="120%" height="160%">
      <feGaussianBlur stdDeviation="8" result="blur"/>
      <feMerge><feMergeNode in="blur"/><feMergeNode in="SourceGraphic"/></feMerge>
    </filter>
    <linearGradient id="card-bb" x1="0%" y1="0%" x2="100%" y2="100%">
      <stop offset="0%" style="stop-color:#1a1a2e"/>
      <stop offset="100%" style="stop-color:#16213e"/>
    </linearGradient>
    <linearGradient id="card-ms" x1="0%" y1="0%" x2="100%" y2="100%">
      <stop offset="0%" style="stop-color:#1a2a1a"/>
      <stop offset="100%" style="stop-color:#162416"/>
    </linearGradient>
    <linearGradient id="card-2048" x1="0%" y1="0%" x2="100%" y2="100%">
      <stop offset="0%" style="stop-color:#2a1a1a"/>
      <stop offset="100%" style="stop-color:#241616"/>
    </linearGradient>
    <linearGradient id="card-mem" x1="0%" y1="0%" x2="100%" y2="100%">
      <stop offset="0%" style="stop-color:#2a1a2a"/>
      <stop offset="100%" style="stop-color:#1e1424"/>
    </linearGradient>
    <linearGradient id="card-fb" x1="0%" y1="0%" x2="100%" y2="100%">
      <stop offset="0%" style="stop-color:#0a1a2e"/>
      <stop offset="100%" style="stop-color:#081520"/>
    </linearGradient>
    <pattern id="scanlines" x="0" y="0" width="1" height="3" patternUnits="userSpaceOnUse">
      <rect x="0" y="0" width="1" height="1" fill="rgba(255,255,255,0.015)"/>
    </pattern>
    <pattern id="grid" x="0" y="0" width="30" height="30" patternUnits="userSpaceOnUse">
      <path d="M 30 0 L 0 0 0 30" fill="none" stroke="rgba(80,80,160,0.08)" stroke-width="0.5"/>
    </pattern>
  </defs>

  <rect width="1050" height="300" fill="url(#bg)"/>
  <rect width="1050" height="300" fill="url(#grid)"/>
  <rect width="1050" height="300" fill="url(#scanlines)"/>

  <ellipse cx="60"  cy="150" rx="90"  ry="70"  fill="rgba(0,220,255,0.04)"/>
  <ellipse cx="916" cy="150" rx="100" ry="70"  fill="rgba(180,0,255,0.05)"/>
  <ellipse cx="525" cy="150" rx="220" ry="55"  fill="rgba(255,60,120,0.025)"/>

  <line x1="0" y1="1"   x2="1050" y2="1"   stroke="#00dcff" stroke-width="1.5" opacity="0.6" filter="url(#glow-cyan)"/>
  <line x1="0" y1="299" x2="1050" y2="299" stroke="#00dcff" stroke-width="1.5" opacity="0.6" filter="url(#glow-cyan)"/>

  <path d="M 0 0 L 28 0 L 28 4 L 4 4 L 4 28 L 0 28 Z"                    fill="#00dcff" opacity="0.7"/>
  <path d="M 1050 0 L 1022 0 L 1022 4 L 1046 4 L 1046 28 L 1050 28 Z"    fill="#00dcff" opacity="0.7"/>
  <path d="M 0 300 L 28 300 L 28 296 L 4 296 L 4 272 L 0 272 Z"           fill="#00dcff" opacity="0.7"/>
  <path d="M 1050 300 L 1022 300 L 1022 296 L 1046 296 L 1046 272 L 1050 272 Z" fill="#00dcff" opacity="0.7"/>

  <!-- LEFT: Title -->
  <text x="58" y="76" font-family="serif" font-size="32" text-anchor="middle" fill="#00dcff" filter="url(#glow-cyan)" opacity="0.9">&#x1F3AE;</text>
  <text x="58" y="118" font-family="'Courier New', monospace" font-size="44" font-weight="900" text-anchor="middle" letter-spacing="2"
        fill="none" stroke="#ff3c78" stroke-width="1" filter="url(#text-glow)" opacity="0.4">GAME</text>
  <text x="58" y="118" font-family="'Courier New', monospace" font-size="44" font-weight="900" text-anchor="middle" letter-spacing="2"
        fill="#ffffff" filter="url(#glow-soft)">GAME</text>
  <text x="58" y="135" font-family="'Courier New', monospace" font-size="11.5" font-weight="700" text-anchor="middle" letter-spacing="1.5"
        fill="none" stroke="#ff3c78" stroke-width="0.5" filter="url(#text-glow)" opacity="0.3">COLLECTION</text>
  <text x="58" y="135" font-family="'Courier New', monospace" font-size="11.5" font-weight="700" text-anchor="middle" letter-spacing="1.5"
        fill="#c0c0e0">COLLECTION</text>
  <text x="58" y="154" font-family="'Courier New', monospace" font-size="7.5" text-anchor="middle" letter-spacing="2"
        fill="#5a5a8a" opacity="0.9">FOR SILLYTAVERN</text>
  <rect x="12" y="166" width="92" height="17" rx="3" fill="none" stroke="#5a2a6a" stroke-width="1"/>
  <text x="58" y="178" font-family="'Courier New', monospace" font-size="9" text-anchor="middle" letter-spacing="2"
        fill="#c060f0" opacity="0.9">v 1.0.0</text>

  <line x1="116" y1="30" x2="116" y2="270" stroke="#1a1a3a" stroke-width="1.5"/>
  <line x1="117" y1="30" x2="117" y2="270" stroke="#00dcff" stroke-width="0.5" opacity="0.2"/>
  <circle cx="116" cy="150" r="3" fill="#00dcff" opacity="0.6" filter="url(#glow-cyan)"/>

  <!-- CARD 1: Block Blast (x=128) -->
  <g transform="translate(128, 25)">
    <rect width="126" height="250" rx="8" fill="url(#card-bb)" stroke="#1e3a6a" stroke-width="1.5"/>
    <rect width="126" height="250" rx="8" fill="none" stroke="#2060c0" stroke-width="0.5" opacity="0.5"/>
    <line x1="8" y1="0" x2="118" y2="0" stroke="#2060c0" stroke-width="2" opacity="0.8"/>
    <g transform="translate(24, 14)" opacity="0.8">
      <rect x="0"  y="0"  width="14" height="14" rx="1.5" fill="#e94560"/>
      <rect x="16" y="0"  width="14" height="14" rx="1.5" fill="#e94560"/>
      <rect x="32" y="0"  width="14" height="14" rx="1.5" fill="#1a2a4a"/>
      <rect x="48" y="0"  width="14" height="14" rx="1.5" fill="#4caf50"/>
      <rect x="64" y="0"  width="14" height="14" rx="1.5" fill="#4caf50"/>
      <rect x="0"  y="16" width="14" height="14" rx="1.5" fill="#f5a623"/>
      <rect x="16" y="16" width="14" height="14" rx="1.5" fill="#e94560"/>
      <rect x="32" y="16" width="14" height="14" rx="1.5" fill="#2196f3"/>
      <rect x="48" y="16" width="14" height="14" rx="1.5" fill="#1a2a4a"/>
      <rect x="64" y="16" width="14" height="14" rx="1.5" fill="#4caf50"/>
      <rect x="0"  y="32" width="14" height="14" rx="1.5" fill="#f5a623"/>
      <rect x="16" y="32" width="14" height="14" rx="1.5" fill="#9c27b0"/>
      <rect x="32" y="32" width="14" height="14" rx="1.5" fill="#2196f3"/>
      <rect x="48" y="32" width="14" height="14" rx="1.5" fill="#2196f3"/>
      <rect x="64" y="32" width="14" height="14" rx="1.5" fill="#4caf50"/>
      <rect x="0"  y="48" width="14" height="14" rx="1.5" fill="#ff5722"/>
      <rect x="16" y="48" width="14" height="14" rx="1.5" fill="#e91e63"/>
      <rect x="32" y="48" width="14" height="14" rx="1.5" fill="#f5a623"/>
      <rect x="48" y="48" width="14" height="14" rx="1.5" fill="#9c27b0"/>
      <rect x="64" y="48" width="14" height="14" rx="1.5" fill="#00bcd4"/>
      <rect x="0"  y="48" width="78" height="14" rx="1.5" fill="rgba(255,255,255,0.13)"/>
    </g>
    <text x="63" y="100" font-family="'Courier New', monospace" font-size="16" text-anchor="middle" fill="#ffffff">&#x2B1B;</text>
    <text x="63" y="117" font-family="'Courier New', monospace" font-size="11" font-weight="700" text-anchor="middle" fill="#ffffff">Block Blast</text>
    <text x="63" y="130" font-family="'Courier New', monospace" font-size="7" text-anchor="middle" fill="#4a6a9a" letter-spacing="1">PUZZLE</text>
    <rect x="18" y="140" width="90" height="15" rx="3" fill="rgba(0,0,0,0.4)" stroke="#1e3a6a" stroke-width="1"/>
    <text x="63" y="151" font-family="'Courier New', monospace" font-size="8" text-anchor="middle" fill="#2060c0">8x8 GRID</text>
    <rect x="18" y="159" width="90" height="15" rx="3" fill="rgba(32,96,192,0.15)" stroke="#1e3a6a" stroke-width="0.5"/>
    <text x="63" y="170" font-family="'Courier New', monospace" font-size="7.5" text-anchor="middle" fill="#4080d0">DRAG &amp; DROP</text>
    <rect x="18" y="178" width="90" height="15" rx="3" fill="rgba(32,96,192,0.1)" stroke="#1e3a6a" stroke-width="0.5"/>
    <text x="63" y="189" font-family="'Courier New', monospace" font-size="7.5" text-anchor="middle" fill="#3060a0">HIGHSCORE</text>
  </g>

  <!-- CARD 2: Minesweeper (x=258) -->
  <g transform="translate(258, 25)">
    <rect width="126" height="250" rx="8" fill="url(#card-ms)" stroke="#1a3a1a" stroke-width="1.5"/>
    <rect width="126" height="250" rx="8" fill="none" stroke="#2a7a2a" stroke-width="0.5" opacity="0.5"/>
    <line x1="8" y1="0" x2="118" y2="0" stroke="#2a7a2a" stroke-width="2" opacity="0.8"/>
    <g transform="translate(34, 14)" opacity="0.85">
      <rect x="0"  y="0"  width="13" height="13" rx="1" fill="#1e3a1e"/>
      <text x="6.5" y="10" font-family="monospace" font-size="9" text-anchor="middle" fill="#4caf50">1</text>
      <rect x="15" y="0"  width="13" height="13" rx="1" fill="#1e3a1e"/>
      <text x="21.5" y="10" font-family="monospace" font-size="9" text-anchor="middle" fill="#2196f3">2</text>
      <rect x="30" y="0"  width="13" height="13" rx="1" fill="#1e3a1e"/>
      <text x="36.5" y="10" font-family="monospace" font-size="9" text-anchor="middle" fill="#2196f3">2</text>
      <rect x="45" y="0"  width="13" height="13" rx="1" fill="#2a1a1a"/>
      <text x="51.5" y="10" font-family="monospace" font-size="8" text-anchor="middle" fill="#ff4444">&#x1F4A5;</text>
      <rect x="0"  y="15" width="13" height="13" rx="1" fill="#1e3a1e"/>
      <rect x="15" y="15" width="13" height="13" rx="1" fill="#0e2a0e" stroke="#2a4a2a" stroke-width="0.5"/>
      <rect x="30" y="15" width="13" height="13" rx="1" fill="#0e2a0e" stroke="#2a4a2a" stroke-width="0.5"/>
      <text x="36.5" y="25" font-family="monospace" font-size="8" text-anchor="middle" fill="#4caf50">&#x1F6A9;</text>
      <rect x="45" y="15" width="13" height="13" rx="1" fill="#0e2a0e" stroke="#2a4a2a" stroke-width="0.5"/>
      <rect x="0"  y="30" width="13" height="13" rx="1" fill="#0e2a0e" stroke="#2a4a2a" stroke-width="0.5"/>
      <rect x="15" y="30" width="13" height="13" rx="1" fill="#0e2a0e" stroke="#2a4a2a" stroke-width="0.5"/>
      <rect x="30" y="30" width="13" height="13" rx="1" fill="#0e2a0e" stroke="#2a4a2a" stroke-width="0.5"/>
      <text x="36.5" y="40" font-family="monospace" font-size="8" text-anchor="middle" fill="#4caf50">&#x1F6A9;</text>
      <rect x="45" y="30" width="13" height="13" rx="1" fill="#0e2a0e" stroke="#2a4a2a" stroke-width="0.5"/>
      <rect x="0"  y="45" width="13" height="13" rx="1" fill="#0e2a0e" stroke="#2a4a2a" stroke-width="0.5"/>
      <rect x="15" y="45" width="13" height="13" rx="1" fill="#0e2a0e" stroke="#2a4a2a" stroke-width="0.5"/>
      <rect x="30" y="45" width="13" height="13" rx="1" fill="#0e2a0e" stroke="#2a4a2a" stroke-width="0.5"/>
      <rect x="45" y="45" width="13" height="13" rx="1" fill="#0e2a0e" stroke="#2a4a2a" stroke-width="0.5"/>
    </g>
    <text x="63" y="100" font-family="'Courier New', monospace" font-size="16" text-anchor="middle" fill="#ffffff">&#x1F4A3;</text>
    <text x="63" y="117" font-family="'Courier New', monospace" font-size="11" font-weight="700" text-anchor="middle" fill="#ffffff">&#1057;&#1072;&#1087;&#1105;&#1088;</text>
    <text x="63" y="130" font-family="'Courier New', monospace" font-size="7" text-anchor="middle" fill="#2a7a2a" letter-spacing="1">MINESWEEPER</text>
    <rect x="18" y="140" width="26" height="15" rx="3" fill="rgba(0,200,0,0.12)" stroke="#1a5a1a" stroke-width="0.5"/>
    <text x="31" y="151" font-family="'Courier New', monospace" font-size="7" text-anchor="middle" fill="#4caf50">EASY</text>
    <rect x="48" y="140" width="26" height="15" rx="3" fill="rgba(255,160,0,0.12)" stroke="#5a3a00" stroke-width="0.5"/>
    <text x="61" y="151" font-family="'Courier New', monospace" font-size="7" text-anchor="middle" fill="#f5a623">MED</text>
    <rect x="78" y="140" width="30" height="15" rx="3" fill="rgba(255,60,60,0.12)" stroke="#5a1a1a" stroke-width="0.5"/>
    <text x="93" y="151" font-family="'Courier New', monospace" font-size="7" text-anchor="middle" fill="#e94560">HARD</text>
    <rect x="18" y="160" width="90" height="15" rx="3" fill="rgba(0,0,0,0.3)" stroke="#1a3a1a" stroke-width="0.5"/>
    <text x="63" y="171" font-family="'Courier New', monospace" font-size="7.5" text-anchor="middle" fill="#2a6a2a">&#x23F1; &#1058;&#1040;&#1049;&#1052;&#1045;&#1056;</text>
    <rect x="18" y="179" width="90" height="15" rx="3" fill="rgba(0,0,0,0.2)" stroke="#1a3a1a" stroke-width="0.5"/>
    <text x="63" y="190" font-family="'Courier New', monospace" font-size="7.5" text-anchor="middle" fill="#2a5a2a">HIGHSCORE</text>
  </g>

  <!-- CARD 3: 2048 (x=388) -->
  <g transform="translate(388, 25)">
    <rect width="126" height="250" rx="8" fill="url(#card-2048)" stroke="#3a1a1a" stroke-width="1.5"/>
    <rect width="126" height="250" rx="8" fill="none" stroke="#8a3a1a" stroke-width="0.5" opacity="0.5"/>
    <line x1="8" y1="0" x2="118" y2="0" stroke="#c05020" stroke-width="2" opacity="0.8"/>
    <g transform="translate(21, 14)" opacity="0.9">
      <rect x="0"  y="0"  width="26" height="26" rx="2" fill="#3a2010"/>
      <text x="13" y="18" font-family="monospace" font-size="11" font-weight="700" text-anchor="middle" fill="#8B4513">2</text>
      <rect x="29" y="0"  width="26" height="26" rx="2" fill="#4a2810"/>
      <text x="42" y="18" font-family="monospace" font-size="11" font-weight="700" text-anchor="middle" fill="#cd8b3a">4</text>
      <rect x="58" y="0"  width="26" height="26" rx="2" fill="#6a3010"/>
      <text x="71" y="18" font-family="monospace" font-size="9" font-weight="700" text-anchor="middle" fill="#e09040">16</text>
      <rect x="0"  y="29" width="26" height="26" rx="2" fill="#7a3810"/>
      <text x="13" y="47" font-family="monospace" font-size="9" font-weight="700" text-anchor="middle" fill="#eba855">64</text>
      <rect x="29" y="29" width="26" height="26" rx="2" fill="#aa5010"/>
      <text x="42" y="47" font-family="monospace" font-size="8" font-weight="700" text-anchor="middle" fill="#f5c870">512</text>
      <rect x="58" y="29" width="26" height="26" rx="2" fill="#ff8c00"/>
      <text x="71" y="45" font-family="monospace" font-size="7" font-weight="900" text-anchor="middle" fill="#fff8e0">2048</text>
      <rect x="58" y="29" width="26" height="26" rx="2" fill="none" stroke="#ffcc00" stroke-width="1.5" opacity="0.9"/>
    </g>
    <text x="63" y="96" font-family="'Courier New', monospace" font-size="15" font-weight="900" text-anchor="middle"
          fill="#ff8c00" filter="url(#glow-yellow)">2048</text>
    <text x="63" y="115" font-family="'Courier New', monospace" font-size="7" text-anchor="middle" fill="#8a3a1a" letter-spacing="1">PUZZLE</text>
    <text x="63" y="138" font-family="'Courier New', monospace" font-size="20" text-anchor="middle" fill="#c05020" opacity="0.55">&#x27F5;&#x27F6;</text>
    <rect x="18" y="150" width="90" height="15" rx="3" fill="rgba(192,80,0,0.15)" stroke="#5a2800" stroke-width="0.5"/>
    <text x="63" y="161" font-family="'Courier New', monospace" font-size="7.5" text-anchor="middle" fill="#c05020">SWIPE CONTROL</text>
    <rect x="18" y="169" width="90" height="15" rx="3" fill="rgba(192,80,0,0.1)" stroke="#5a2800" stroke-width="0.5"/>
    <text x="63" y="180" font-family="'Courier New', monospace" font-size="7.5" text-anchor="middle" fill="#a04020">HIGHSCORE</text>
  </g>

  <!-- CARD 4: Memory (x=518) -->
  <g transform="translate(518, 25)">
    <rect width="126" height="250" rx="8" fill="url(#card-mem)" stroke="#3a1a4a" stroke-width="1.5"/>
    <rect width="126" height="250" rx="8" fill="none" stroke="#7a3aaa" stroke-width="0.5" opacity="0.5"/>
    <line x1="8" y1="0" x2="118" y2="0" stroke="#9040d0" stroke-width="2" opacity="0.8"/>
    <g transform="translate(22, 12)" opacity="0.95">
      <rect x="0"  y="0" width="18" height="26" rx="2" fill="#2a1a3a" stroke="#5a3a7a" stroke-width="1"/>
      <text x="9"  y="20" font-family="serif" font-size="10" text-anchor="middle" fill="#8a6aaa">&#x263D;</text>
      <rect x="21" y="0" width="18" height="26" rx="2" fill="#2a1a3a" stroke="#5a3a7a" stroke-width="1"/>
      <text x="30" y="20" font-family="serif" font-size="10" text-anchor="middle" fill="#6a8aaa">&#x2600;</text>
      <rect x="42" y="0" width="18" height="26" rx="2" fill="#3a2a1a" stroke="#7a5a2a" stroke-width="1"/>
      <text x="51" y="20" font-family="serif" font-size="10" text-anchor="middle" fill="#aa8a4a">&#x2605;</text>
      <rect x="63" y="0" width="18" height="26" rx="2" fill="#1a2a1a" stroke="#2a6a2a" stroke-width="1"/>
      <text x="72" y="20" font-family="serif" font-size="10" text-anchor="middle" fill="#4a9a4a">&#x25C6;</text>
      <rect x="0"  y="29" width="18" height="26" rx="2" fill="#3a1a2a" stroke="#aa3060" stroke-width="1.2"/>
      <text x="9"  y="47" font-family="serif" font-size="15" text-anchor="middle" fill="#cc4080">&#x25C6;</text>
      <rect x="21" y="29" width="18" height="26" rx="2" fill="#2a1a3a" stroke="#5a3a7a" stroke-width="1"/>
      <text x="30" y="47" font-family="serif" font-size="10" text-anchor="middle" fill="#7a4aaa">&#x2726;</text>
      <rect x="42" y="29" width="18" height="26" rx="2" fill="#3a1a2a" stroke="#aa3060" stroke-width="1.2"/>
      <text x="51" y="47" font-family="serif" font-size="15" text-anchor="middle" fill="#cc4080">&#x25C6;</text>
      <rect x="63" y="29" width="18" height="26" rx="2" fill="#2a1a3a" stroke="#5a3a7a" stroke-width="1"/>
      <text x="72" y="47" font-family="serif" font-size="10" text-anchor="middle" fill="#7a4aaa">&#x2726;</text>
      <rect x="0"  y="29" width="18" height="26" rx="2" fill="rgba(180,40,100,0.15)"/>
      <rect x="42" y="29" width="18" height="26" rx="2" fill="rgba(180,40,100,0.15)"/>
    </g>
    <text x="63" y="100" font-family="'Courier New', monospace" font-size="16" text-anchor="middle" fill="#ffffff">&#x1F0CF;</text>
    <text x="63" y="117" font-family="'Courier New', monospace" font-size="11" font-weight="700" text-anchor="middle" fill="#ffffff">&#1052;&#1077;&#1084;&#1086;&#1088;&#1080;</text>
    <text x="63" y="130" font-family="'Courier New', monospace" font-size="7" text-anchor="middle" fill="#7a3aaa" letter-spacing="1">TAROT CARDS</text>
    <rect x="18" y="140" width="90" height="15" rx="3" fill="rgba(100,0,150,0.2)" stroke="#5a1a7a" stroke-width="0.5"/>
    <text x="63" y="151" font-family="'Courier New', monospace" font-size="7.5" text-anchor="middle" fill="#9040d0">4 &#1059;&#1056;&#1054;&#1042;&#1053;&#1071;</text>
    <rect x="18" y="159" width="90" height="15" rx="3" fill="rgba(100,0,150,0.15)" stroke="#5a1a7a" stroke-width="0.5"/>
    <text x="63" y="170" font-family="'Courier New', monospace" font-size="7.5" text-anchor="middle" fill="#7030a0">18 &#1050;&#1040;&#1056;&#1058; &#1058;&#1040;&#1056;&#1054;</text>
    <rect x="18" y="178" width="90" height="19" rx="4" fill="rgba(0,0,0,0.35)" stroke="#4a1a5a" stroke-width="1"/>
    <text x="63" y="186" font-family="'Courier New', monospace" font-size="6.5" text-anchor="middle" fill="#5a2a7a">&#1058;&#1040;&#1049;&#1052;&#1045;&#1056;</text>
    <text x="63" y="195" font-family="'Courier New', monospace" font-size="8" font-weight="700" text-anchor="middle" fill="#9040d0">40-120&#1089;</text>
  </g>

  <!-- CARD 5: Flappy Bird (x=648) -->
  <g transform="translate(648, 25)">
    <rect width="126" height="250" rx="8" fill="url(#card-fb)" stroke="#1a3a4a" stroke-width="1.5"/>
    <rect width="126" height="250" rx="8" fill="none" stroke="#2a7a9a" stroke-width="0.5" opacity="0.5"/>
    <line x1="8" y1="0" x2="118" y2="0" stroke="#00aacc" stroke-width="2" opacity="0.8"/>
    <g transform="translate(10, 10)">
      <rect x="0" y="0" width="106" height="70" rx="4" fill="#0a1828" opacity="0.8"/>
      <rect x="14" y="5"  width="2" height="2" fill="rgba(200,230,255,0.5)"/>
      <rect x="55" y="3"  width="2" height="2" fill="rgba(200,230,255,0.4)"/>
      <rect x="90" y="9"  width="2" height="2" fill="rgba(200,230,255,0.4)"/>
      <ellipse cx="22" cy="14" rx="13" ry="5" fill="rgba(180,220,255,0.1)"/>
      <ellipse cx="75" cy="9"  rx="10" ry="4" fill="rgba(180,220,255,0.08)"/>
      <!-- Left pipe top -->
      <rect x="16" y="0"  width="20" height="22" rx="2" fill="#3a8a3a"/>
      <rect x="12" y="18" width="28" height="6"  rx="2" fill="#2a6a2a"/>
      <rect x="18" y="0"  width="4"  height="21" rx="1" fill="rgba(255,255,255,0.1)"/>
      <!-- Left pipe bottom -->
      <rect x="16" y="40" width="20" height="30" rx="2" fill="#3a8a3a"/>
      <rect x="12" y="40" width="28" height="6"  rx="2" fill="#2a6a2a"/>
      <rect x="18" y="46" width="4"  height="24" rx="1" fill="rgba(255,255,255,0.1)"/>
      <!-- Right pipe top -->
      <rect x="70" y="0"  width="20" height="16" rx="2" fill="#3a8a3a"/>
      <rect x="66" y="12" width="28" height="6"  rx="2" fill="#2a6a2a"/>
      <rect x="72" y="0"  width="4"  height="15" rx="1" fill="rgba(255,255,255,0.1)"/>
      <!-- Right pipe bottom -->
      <rect x="70" y="42" width="20" height="28" rx="2" fill="#3a8a3a"/>
      <rect x="66" y="42" width="28" height="6"  rx="2" fill="#2a6a2a"/>
      <rect x="72" y="48" width="4"  height="22" rx="1" fill="rgba(255,255,255,0.1)"/>
      <!-- Bird -->
      <circle cx="47" cy="30" r="10" fill="#f5d020"/>
      <circle cx="47" cy="30" r="10" fill="none" stroke="#d4a010" stroke-width="1.2"/>
      <ellipse cx="43" cy="33" rx="6" ry="3.5" fill="#dba010" opacity="0.85"/>
      <circle cx="51" cy="27" r="3.2" fill="white"/>
      <circle cx="52" cy="27" r="1.6" fill="#1a1a1a"/>
      <circle cx="52.5" cy="26.2" r="0.5" fill="white" opacity="0.8"/>
      <path d="M 55 30 L 62 28 L 62 33 Z" fill="#ff8800"/>
      <!-- Ground -->
      <rect x="0" y="64" width="106" height="6" rx="1" fill="#1e3a12"/>
      <rect x="0" y="64" width="106" height="2" rx="1" fill="#2a5a18" opacity="0.6"/>
    </g>
    <text x="63" y="100" font-family="'Courier New', monospace" font-size="16" text-anchor="middle" fill="#ffffff">&#x1F426;</text>
    <text x="63" y="117" font-family="'Courier New', monospace" font-size="11" font-weight="700" text-anchor="middle" fill="#ffffff">Flappy Bird</text>
    <text x="63" y="130" font-family="'Courier New', monospace" font-size="7" text-anchor="middle" fill="#2a7a9a" letter-spacing="1">ARCADE</text>
    <rect x="18" y="140" width="90" height="15" rx="3" fill="rgba(0,120,170,0.2)" stroke="#1a4a6a" stroke-width="0.5"/>
    <text x="63" y="151" font-family="'Courier New', monospace" font-size="7.5" text-anchor="middle" fill="#00aacc">HIGHSCORE</text>
    <rect x="18" y="159" width="90" height="15" rx="3" fill="rgba(0,100,150,0.15)" stroke="#1a4a6a" stroke-width="0.5"/>
    <text x="63" y="170" font-family="'Courier New', monospace" font-size="7.5" text-anchor="middle" fill="#008aaa">TAP TO FLY</text>
    <rect x="18" y="178" width="90" height="15" rx="3" fill="rgba(0,80,120,0.12)" stroke="#1a4a6a" stroke-width="0.5"/>
    <text x="63" y="189" font-family="'Courier New', monospace" font-size="7.5" text-anchor="middle" fill="#006a8a">ENDLESS RUNNER</text>
  </g>

  <!-- Card dividers -->
  <line x1="256" y1="25" x2="256" y2="275" stroke="#1a1a3a" stroke-width="1"/>
  <line x1="386" y1="25" x2="386" y2="275" stroke="#1a1a3a" stroke-width="1"/>
  <line x1="516" y1="25" x2="516" y2="275" stroke="#1a1a3a" stroke-width="1"/>
  <line x1="646" y1="25" x2="646" y2="275" stroke="#1a1a3a" stroke-width="1"/>

  <!-- RIGHT SEPARATOR -->
  <line x1="782" y1="30" x2="782" y2="270" stroke="#1a1a3a" stroke-width="1.5"/>
  <line x1="783" y1="30" x2="783" y2="270" stroke="#00dcff" stroke-width="0.5" opacity="0.2"/>
  <circle cx="782" cy="150" r="3" fill="#00dcff" opacity="0.6" filter="url(#glow-cyan)"/>

  <!-- FEATURES -->
  <text x="916" y="48" font-family="'Courier New', monospace" font-size="9" text-anchor="middle" letter-spacing="3"
        fill="#3a3a6a">&#x2726; &#1042;&#1054;&#1047;&#1052;&#1054;&#1046;&#1053;&#1054;&#1057;&#1058;&#1048; &#x2726;</text>
  <line x1="798" y1="56" x2="1040" y2="56" stroke="#1a1a3a" stroke-width="1"/>
  <g font-family="'Courier New', monospace" font-size="11">
    <text x="800" y="80"  fill="#00dcff" filter="url(#glow-soft)">&#x203A;</text>
    <text x="814" y="80"  fill="#c0c0e0">&#1055;&#1083;&#1072;&#1074;&#1072;&#1102;&#1097;&#1072;&#1103; &#1082;&#1085;&#1086;&#1087;&#1082;&#1072; &#x1F3AE;</text>
    <text x="814" y="93"  fill="#4a4a6a" font-size="9">&#1087;&#1077;&#1088;&#1077;&#1090;&#1072;&#1089;&#1082;&#1080;&#1074;&#1072;&#1081; &#1082;&#1091;&#1076;&#1072; &#1093;&#1086;&#1095;&#1077;&#1096;&#1100;</text>
    <text x="800" y="114" fill="#00dcff" filter="url(#glow-soft)">&#x203A;</text>
    <text x="814" y="114" fill="#c0c0e0">&#1050;&#1083;&#1080;&#1082; &amp;mdash; &#1080;&#1075;&#1088;&#1072;</text>
    <text x="814" y="127" fill="#4a4a6a" font-size="9">&#1076;&#1074;&#1086;&#1081;&#1085;&#1086;&#1081; &#1082;&#1083;&#1080;&#1082; &amp;mdash; &#1074;&#1099;&#1073;&#1086;&#1088; &#1080;&#1075;&#1088;&#1099;</text>
    <text x="800" y="148" fill="#00dcff" filter="url(#glow-soft)">&#x203A;</text>
    <text x="814" y="148" fill="#c0c0e0">&#1056;&#1077;&#1082;&#1086;&#1088;&#1076;&#1099; &#1089;&#1086;&#1093;&#1088;&#1072;&#1085;&#1103;&#1102;&#1090;&#1089;&#1103;</text>
    <text x="814" y="161" fill="#4a4a6a" font-size="9">localStorage &#1084;&#1077;&#1078;&#1076;&#1091; &#1089;&#1077;&#1089;&#1089;&#1080;&#1103;&#1084;&#1080;</text>
    <text x="800" y="182" fill="#00dcff" filter="url(#glow-soft)">&#x203A;</text>
    <text x="814" y="182" fill="#c0c0e0">&#1052;&#1086;&#1073;&#1080;&#1083;&#1100;&#1085;&#1072;&#1103; &#1087;&#1086;&#1076;&#1076;&#1077;&#1088;&#1078;&#1082;&#1072;</text>
    <text x="814" y="195" fill="#4a4a6a" font-size="9">&#1089;&#1074;&#1072;&#1081;&#1087;&#1099; &#1080; &#1090;&#1072;&#1095;-&#1091;&#1087;&#1088;&#1072;&#1074;&#1083;&#1077;&#1085;&#1080;&#1077;</text>
    <text x="800" y="216" fill="#00dcff" filter="url(#glow-soft)">&#x203A;</text>
    <text x="814" y="216" fill="#c0c0e0">5 &#1080;&#1075;&#1088; &#1074; &#1086;&#1076;&#1085;&#1086;&#1084; &#1088;&#1072;&#1089;&#1096;&#1080;&#1088;&#1077;&#1085;&#1080;&#1080;</text>
    <text x="814" y="229" fill="#4a4a6a" font-size="9">&#1080;&#1075;&#1088;&#1072;&#1081; &#1087;&#1086;&#1082;&#1072; &#1048;&#1048; &#1076;&#1091;&#1084;&#1072;&#1077;&#1090;!</text>
  </g>

  <rect x="786" y="32"   width="2" height="2" fill="#00dcff" opacity="0.4"/>
  <rect x="792" y="40"   width="2" height="2" fill="#c060f0" opacity="0.4"/>
  <rect x="796" y="30"   width="2" height="2" fill="#ff3c78" opacity="0.4"/>
  <rect x="1046" y="260" width="2" height="2" fill="#00dcff" opacity="0.4"/>
  <rect x="1040" y="266" width="2" height="2" fill="#c060f0" opacity="0.3"/>
</svg>
