<svg xmlns="http://www.w3.org/2000/svg" viewBox="0 0 16 16" shape-rendering="crispEdges">
  <rect x="6" y="0" width="4" height="2" fill="currentColor"/>
  <rect x="4" y="2" width="2" height="2" fill="currentColor"/>
  <rect x="10" y="2" width="2" height="2" fill="currentColor"/>
  <rect x="0" y="4" width="2" height="2" fill="currentColor"/>
  <rect x="2" y="4" width="12" height="2" fill="currentColor"/>
  <rect x="14" y="4" width="2" height="2" fill="currentColor"/>
  <rect x="0" y="6" width="16" height="4" fill="currentColor"/>
  <rect x="0" y="10" width="2" height="2" fill="currentColor"/>
  <rect x="2" y="10" width="12" height="2" fill="currentColor"/>
  <rect x="14" y="10" width="2" height="2" fill="currentColor"/>
  <rect x="4" y="12" width="2" height="2" fill="currentColor"/>
  <rect x="10" y="12" width="2" height="2" fill="currentColor"/>
  <rect x="6" y="14" width="4" height="2" fill="currentColor"/>
  <!-- Center hole -->
  <rect x="5" y="5" width="6" height="6" fill="#16213e"/>
  <rect x="6" y="6" width="4" height="4" fill="currentColor" opacity="0.15"/>
</svg>
